<?xml version="1.0" standalone="no"?>
<svg viewBox="0 0 200 200" xmlns="http://www.w3.org/2000/svg">
  <path fill="#101010" d="M16.1,-32.2C21.3,-21.7,26.4,-18,37.1,-11.9C47.9,-5.7,64.2,2.9,71.5,16.2C78.9,29.5,77.2,47.5,68.4,61.4C59.7,75.4,43.8,85.4,28.4,84.3C12.9,83.3,-2.3,71.2,-13.2,60.8C-24.1,50.3,-30.9,41.5,-34.9,32.6C-38.8,23.7,-40,14.8,-45.6,4C-51.1,-6.8,-61,-19.6,-60.3,-30.3C-59.7,-41,-48.6,-49.7,-36.8,-57.3C-25,-64.8,-12.5,-71.2,-3.5,-65.7C5.4,-60.2,10.8,-42.8,16.1,-32.2Z" transform="translate(100 100)" />
</svg>
