<svg width="75" height="38" viewBox="0 0 75 38" fill="none" xmlns="http://www.w3.org/2000/svg">
<path d="M72.4155 37.9998L74.2324 36.5012L54.9215 11.2393L53.0527 12.7378L72.4155 37.9998ZM72.4155 37.9998L74.2324 36.5012L54.9215 11.2393L53.0527 12.7378L72.4155 37.9998Z" fill="#CCB189"/>
<path fill-rule="evenodd" clip-rule="evenodd" d="M10.6936 22.0507C16.5077 22.0507 21.3354 17.0197 21.3354 10.9718C21.3354 4.92394 16.5077 0 10.6936 0C4.7758 0 0 4.92394 0 10.9718C0 17.0732 4.7758 22.0507 10.6936 22.0507ZM2.43981 10.9183C2.43981 15.6817 6.17739 19.6423 10.6936 19.6423C15.2099 19.6423 18.8956 15.6817 18.8956 10.9183C18.8956 6.26197 15.158 2.40845 10.6936 2.40845C6.07357 2.40845 2.43981 6.15493 2.43981 10.9183Z" fill="#A2B372"/>
<path fill-rule="evenodd" clip-rule="evenodd" d="M37.2054 22.0507C43.0194 22.0507 47.8471 17.0197 47.8471 10.9718C47.8471 4.92394 43.0194 0 37.2054 0C31.2875 0 26.5117 4.92394 26.5117 10.9718C26.5117 17.0732 31.2875 22.0507 37.2054 22.0507ZM28.9515 10.9183C28.9515 15.6817 32.6891 19.6423 37.2054 19.6423C41.7216 19.6423 45.4073 15.6817 45.4073 10.9183C45.4073 6.26197 41.6697 2.40845 37.2054 2.40845C32.5853 2.40845 28.9515 6.15493 28.9515 10.9183Z" fill="#C49FD5"/>
<path d="M9.81081 37.9999L19.8296 23.8703L17.8051 22.2646L7.73438 36.2872L9.81081 37.9999Z" fill="#BC8E58"/>
<path d="M9.81081 37.9999L19.8296 23.8703L17.8051 22.2646L7.73438 36.2872L9.81081 37.9999Z" fill="#BC8E58"/>
<path d="M36.3225 37.9999L46.3413 23.8703L44.3168 22.2646L34.2461 36.2872L36.3225 37.9999Z" fill="#905B54"/>
<path d="M36.3225 37.9999L46.3413 23.8703L44.3168 22.2646L34.2461 36.2872L36.3225 37.9999Z" fill="#905B54"/>
<path d="M73.5061 12.7378L66.2386 22.3181L64.4736 20.659L71.6373 11.2393L73.5061 12.7378Z" fill="#B44B4B"/>
<path d="M54.1431 38.0003L62.1892 27.5636L60.3724 25.958L52.3262 36.5017L54.1431 38.0003Z" fill="#7A6977"/>
</svg>
